# ChronoEye crystal, 8 triangles; units: meters.
v 0 0.22 0
v 0 0 0
v 0.09 0.11 0
v 0 0.11 0.09
v -0.09 0.11 0
v 0 0.11 -0.09
vt 0.5 0.5
vn 0.6120563724821229 0.5007733956671915 0.6120563724821229
vn -0.6120563724821229 0.5007733956671915 0.6120563724821229
vn -0.6120563724821229 0.5007733956671915 -0.6120563724821229
vn 0.6120563724821229 0.5007733956671915 -0.6120563724821229
vn 0.6120563724821229 -0.5007733956671915 0.6120563724821229
vn -0.6120563724821229 -0.5007733956671915 0.6120563724821229
vn -0.6120563724821229 -0.5007733956671915 -0.6120563724821229
vn 0.6120563724821229 -0.5007733956671915 -0.6120563724821229
f 1/1/1 4/1/1 3/1/1
f 1/1/2 5/1/2 4/1/2
f 1/1/3 6/1/3 5/1/3
f 1/1/4 3/1/4 6/1/4
f 2/1/5 3/1/5 4/1/5
f 2/1/6 4/1/6 5/1/6
f 2/1/7 5/1/7 6/1/7
f 2/1/8 6/1/8 3/1/8
